# xmcd
#
# Track frame offsets:
#	150
#	13741
#	27299
#	41843
#	56174
#	69934
#	86493
#	99800
#	114856
#	128271
#	145038
#	160746
#
# Disc length: 2363 seconds
#
# Revision: 0
# Processed by: cddbd v1.5.2PL0 Copyright (c) Steve Scherf et al.
# Submitted via: dBpowerAMP V4.0
#
DISCID=8a09390c
DTITLE=Michael Ray - Michael Ray
DYEAR=2015
DGENRE=Country
TTITLE0=Kiss You In The Morning
TTITLE1=Another Girl
TTITLE2=Look Like This
TTITLE3=Real Men Love Jesus
TTITLE4=Livin' It Up
TTITLE5=Run Away With You
TTITLE6=Think A Little Less
TTITLE7=Wish I Was Here
TTITLE8=This Love
TTITLE9=Drivin' All Night
TTITLE10=Everything In Between
TTITLE11=Somewhere South
EXTD=
EXTT0=
EXTT1=
EXTT2=
EXTT3=
EXTT4=
EXTT5=
EXTT6=
EXTT7=
EXTT8=
EXTT9=
EXTT10=
EXTT11=
PLAYORDER=
